<svg xmlns="http://www.w3.org/2000/svg" viewBox="0 0 64 64">
  <defs>
    <linearGradient id="g" x1="0%" y1="0%" x2="100%" y2="100%">
      <stop offset="0%" stop-color="#0ea5e9"/>
      <stop offset="100%" stop-color="#06b6d4"/>
    </linearGradient>
  </defs>
  <!-- Rounded square background -->
  <rect width="64" height="64" rx="14" fill="url(#g)"/>
  <!-- Window/crystal pane (4 quadrants) -->
  <rect x="14" y="14" width="15" height="15" rx="3" fill="rgba(255,255,255,0.95)"/>
  <rect x="35" y="14" width="15" height="15" rx="3" fill="rgba(255,255,255,0.75)"/>
  <rect x="14" y="35" width="15" height="15" rx="3" fill="rgba(255,255,255,0.75)"/>
  <rect x="35" y="35" width="15" height="15" rx="3" fill="rgba(255,255,255,0.55)"/>
  <!-- Sparkle/shine effect -->
  <circle cx="20" cy="20" r="2.5" fill="#0ea5e9" opacity="0.6"/>
  <path d="M48 8 L50 14 L56 16 L50 18 L48 24 L46 18 L40 16 L46 14 Z" fill="white" opacity="0.9"/>
  <path d="M54 28 L55 31 L58 32 L55 33 L54 36 L53 33 L50 32 L53 31 Z" fill="white" opacity="0.7"/>
</svg>
